<?xml version="1.0" encoding="utf-8"?>
<!-- Generator: Adobe Illustrator 18.0.0, SVG Export Plug-In . SVG Version: 6.00 Build 0)  -->
<!DOCTYPE svg PUBLIC "-//W3C//DTD SVG 1.1//EN" "http://www.w3.org/Graphics/SVG/1.1/DTD/svg11.dtd">
<svg version="1.1" id="Calque_1" xmlns="http://www.w3.org/2000/svg" xmlns:xlink="http://www.w3.org/1999/xlink" x="0px" y="0px"
	 viewBox="0 0 1000 1000" enable-background="new 0 0 1000 1000" xml:space="preserve">
<g>
	<g id="XMLID_1_">
		<g>
			<path fill="#FFFFFF" d="M895.8,645.1c4.3,1.8,4.9,2.5,3.3,6.8c-4.5,12.4-8.9,24.8-13.8,37.1c-4,10.1-8.5,20-13.2,29.8
				c-3.9,7.9-8.4,15.4-12.8,23c-6.5,11-13,22.1-20,32.8c-4.9,7.5-10.4,14.7-16.1,21.7c-7.6,9.3-15.7,18.2-23.6,27.2
				c-2.8,3.2-5.7,6.4-8.7,9.4c-16.7,16.6-34.8,31.3-54.5,44.4c-17.5,11.7-36.3,20.6-55.7,28.4c-5.5,2.2-10.9,4.3-16.3,6.5
				c-1.9,0.8-2.9,0.2-3.6-1.4c-5-10.5-10-20.9-15-31.4c-4.6-9.6-3.5-9.3-12.2-6c-15,5.7-29.9,11.5-45.7,14.7
				c-10.9,2.2-21.7,4.6-32.7,6c-12.1,1.5-24.4,2.1-36.6,3c-5.4,0.4-10.9,0.8-16.3,0.7c-10.6-0.2-21.3-0.5-31.9-1.5
				c-11.9-1-23.7-2.9-35.6-4.1c-18.9-1.9-37.3-6.2-55.4-11.7c-10.6-3.2-20.9-7.6-31.1-12c-10.4-4.4-21-8.8-30.8-14.4
				c-15.1-8.6-30-17.6-44.2-27.5c-11.9-8.2-23-17.7-33.8-27.3c-7.8-6.9-14.8-14.8-22-22.5c-3.8-4.1-4.8-4.2-9.2-0.4
				c-7.4,6.4-14.9,12.6-22.3,18.9c-1.9,1.7-3.3,1.3-4.8-0.4c-6.5-7.7-13.4-15.2-19.5-23.2c-6.1-8-11.8-16.3-17-24.8
				c-9.5-15.4-18.4-31.2-25.3-48c-4.5-11-9.1-22-13-33.2c-6.3-18.2-11.2-36.8-14.5-55.8c-2.1-11.9-3-23.9-4.4-35.9
				c-0.3-3-0.4-6.1-0.8-9.2c-0.3-3,1.1-3.9,3.9-3.9c8.9,0.1,17.9-0.1,26.8,0c4.9,0.1,9.9,0.4,14.8,0.7c3.3,0.2,4.6-1.4,4.1-4.6
				c-0.5-3.4-0.9-6.8-1-10.2c-0.3-11.1-1.1-22.3-0.6-33.4c0.6-13.4,1.7-26.8,3.5-40c2-14.7,4.6-29.3,7.9-43.7
				c2.7-11.7,6.4-23.2,10.6-34.4c5.6-14.9,11.6-29.8,18.6-44.2c6-12.3,13.3-24.1,20.8-35.7c6.7-10.3,14.3-20.2,22-29.9
				c5.6-7.2,11.8-14,17.9-20.8c3.6-4.1,7.3-8.2,11.3-12c7.1-6.7,14.2-13.6,21.9-19.6c11.5-9.1,23.3-18,35.4-26.1
				c10.7-7.2,22-13.6,33.3-19.8c6.6-3.7,13.7-6.5,20.8-9.4c10.6-4.4,21.1-9.2,32-12.6c13.9-4.4,28-7.9,42.2-11.2
				c8.1-1.9,16.4-2.6,24.6-3.8c8.6-1.2,17.2-2.4,25.8-3.5c0.9-0.1,1.9,0,2.8-0.1c6.6-0.2,13.2-0.8,19.9-0.6
				c7.8,0.1,15.5,0.9,23.3,1.3c2.5,0.1,5,0,8,0c0-1.7,0-3,0-4.3c0-15.6,0-31.2,0-46.8c0-4.6,0.5-5.2,4.9-4.6
				c6.6,0.8,13.3,1.4,19.8,2.9c18.1,4.3,36.1,8.6,54,13.6c12.1,3.4,24,7.7,35.8,12.1c8,3,15.8,6.7,23.5,10.5
				c11.2,5.4,22.5,10.5,33.3,16.7c12.7,7.3,25.1,15.3,37,23.8c11,7.9,21.6,16.4,31.8,25.4c9.5,8.4,18.4,17.4,26.9,26.9
				c9.3,10.4,18.1,21.3,26.7,32.3c5.3,6.9,9.8,14.4,14.7,21.7c3.4,5.1,3.2,6.3-2.1,9.7c-5.5,3.6-11,7.2-16.5,10.7
				c-3.8,2.5-3.8,3-1.4,6.8c6.2,10.2,12.8,20.2,18.3,30.7c5.1,9.6,9.8,19.5,13.4,29.7c5.9,17,11.3,34.3,15.9,51.8
				c2.8,10.3,3.7,21.2,5.4,31.8c3,18.4,3.3,37,2.7,55.5c-0.3,10.9-1.8,21.8-2.7,32.7c-0.7,7.6-1.2,15.2-2.2,22.8
				c-0.9,6.8-2.2,13.6-3.5,20.4c-2.3,11.9-4.7,23.8-7.2,35.7c-0.8,3.9-2,7.7-3.2,11.4c-0.7,2.2,0,3.3,2,4.1
				C874.8,635.8,885.3,640.6,895.8,645.1z M820.7,498.9c3.7-15.2,6-30.6,5.8-46.3c-0.1-10.9-0.3-21.8-0.7-32.7
				c-0.2-6.8-0.9-13.6-1.4-20.4c-0.2-2.4-1-3.8-3.9-2.7c-3.3,1.2-6.7,2.1-10,3.1c-18.2,5.4-36.5,10.6-54.7,16.1
				c-7.8,2.4-15.6,5.1-23.4,7.5c-12.5,3.9-25,7.6-37.5,11.4c-2.7,0.8-3.9,2.5-3.6,5.2c0.2,1.6,0.4,3.3,0.8,4.8c0.5,2,1.5,3.4,4,3
				c1.2-0.2,2.4,0,3.6,0c27.9,0,55.7,0,83.5,0c3.8,0,5.7,2.1,5.1,5.3c-1,5.6-1.5,11.4-2.8,16.9c-2.3,10.5-4.2,21.1-7.7,31.2
				c-3.9,11.2-9,22-14.5,32.6c-4.4,8.5-9.7,16.5-15.2,24.4c-4.9,6.9-10.2,13.5-16,19.6c-10.8,11.3-21.7,22.6-33.4,33
				c-7.3,6.5-15.9,11.4-24.2,16.7c-11.6,7.4-23.5,14.4-36.5,19.1c-17.7,6.4-35.4,12.8-53.3,18.3c-10.7,3.2-21.9,4.8-32.8,6.9
				c-4.1,0.8-6.2,2.7-6.2,7c0,3,0.5,6.1,0.9,10c3.7-0.6,7.1-1.2,10.5-1.8c12.3-2.3,24.6-4.2,36.8-7.1c21-4.9,42.1-9.7,62-18.6
				c10.7-4.8,21.7-8.7,32.2-13.6c8.7-4.1,16.9-9.2,25.4-13.9c17.7-9.8,33.8-21.9,48.1-36.1c7-6.9,13.3-14.6,19.9-21.9
				c9.7-10.8,17.1-23.1,23.7-35.9C812.1,527.1,817.2,513.3,820.7,498.9z M667,617.2c2,0,3.4-0.6,3-2.8c-0.5-3.7-0.5-7.7-2-11
				c-7.8-17.5-16-34.9-24.2-52.2c-3.5-7.4-7.2-14.7-10.7-22.2c-10.5-22.7-20.9-45.5-31.3-68.3c-4.8-10.4-9.3-20.9-14.3-31.3
				c-2.2-4.7-4.6-9.6-7.9-13.5c-3.4-4.1-11.6-2.3-13.7,2.3c-4.4,9.8-8.9,19.6-13.4,29.4c-7.4,16-14.8,32.1-22.2,48.1
				c-6.6,14.3-13.2,28.7-19.8,43c-8.7,18.8-17.6,37.5-26.3,56.3c-2.7,5.8-5.4,11.7-5.4,18.3c0,3,0.9,3.9,3.9,3.9
				c10.4-0.1,20.7-0.2,31.1,0c3,0.1,4.6-1.4,5.7-3.8c6.3-13.6,12.6-27.2,18.9-40.8c1.6-3.5,4-4.9,7.9-4.8
				c18.7,0.2,37.4,0.1,56.1,0.1c6.5,0,7.3,0.5,9.8,6.4c0.9,2.1,1.7,4.4,2.5,6.5c4.6,11.1,9.2,22.2,13.8,33.3
				c0.9,2.2,2.1,3.2,4.7,3.1c5.4-0.2,10.7-0.1,16.1-0.1C655.4,617.2,661.2,617.2,667,617.2z M468.7,418.5c0.1-3.5-1.1-4.4-4.5-4.4
				c-34.2,0.1-68.3,0.1-102.5,0.1c-5.2,0-5.5,0.3-5.5,5.4c0,64,0,128.1,0,192.1c0,0.6,0,1.2,0,1.8c-0.1,2.6,0.8,3.8,3.7,3.8
				c33.1-0.1,66.2-0.1,99.3,0c2.8,0,3.7-0.9,3.7-3.7c-0.1-9.4,0-18.8-0.1-28.2c0-4.7,0-4.7-4.7-4.7c-19.9,0-39.8,0-59.6,0
				c-3.7,0-5.5-2.1-4.9-5.7c0.3-1.8,0.6-3.7,0.6-5.6c0.1-12.8,0-25.7,0-38.6c0-6.7-1.8-8,8-7.9c19.8,0.1,39.5,0,59.3,0
				c0.2-0.6,0.4-0.8,0.4-1c0-8.5,0-16.9,0.1-25.4c0.1-5.1,0.8-6.8-6.9-6.6c-18.6,0.3-37.3,0.5-55.9,0.7c-4.1,0.1-5.7-1.3-5.8-4.9
				c-0.1-9.8-0.1-19.5,0.1-29.3c0-1,1.3-2.6,2.2-2.7c2.5-0.4,5-0.1,7.5-0.1c20.5,0,41,0,61.4,0c2.9,0,3.8-1.2,3.8-4.1
				C468.6,439.2,468.5,428.9,468.7,418.5z M321.7,611.6c2.1-0.4,2.8-1.5,2.8-3.7c-0.1-8.1-0.1-16.2-0.1-24.3c0-7.9,0-15.9,0-24.5
				c-8.2,9.4-17.1,16.5-27.2,22.3c-6,3.5-12.3,5.7-19,6.2c-12.1,0.8-23.8-0.3-35.1-6.1c-13.3-6.8-24-15.5-30.3-29.4
				c-5-11-6.6-22.5-6.8-34.2c-0.1-5.2,1-10.5,2.1-15.6c3.2-15.2,9.3-29,20.5-40.3c10.8-10.9,24.5-14.2,38.8-16
				c3.6-0.4,7.5,0.8,11.2,1.3c10.4,1.2,20,4.8,28.9,10.1c5.6,3.3,10.9,7,16.3,10.6c0.2-0.3,0.5-0.5,0.5-0.7c0-13.2,0.1-26.4,0-39.6
				c0-0.9-1.2-2.2-2.2-2.6c-5.8-2.3-11.5-5-17.5-6.4c-7.7-1.8-15.7-2.4-23.5-3.8c-9.6-1.6-19,0-28.4,1.2c-8.4,1-15.9,4.5-23.8,7.3
				c-22.2,7.8-38.8,22.1-49.2,43.1c-5.8,11.7-8.8,24.4-9.6,37.4c-1.1,17.5,0.1,34.9,5.3,51.8c4.5,14.8,11.8,28.1,23.9,38.5
				c8.1,7,17.3,12.1,27,15.8c13.4,5.2,27.7,7.2,42,7.2c12,0,24-1,36-2.1C310,614.4,315.8,612.7,321.7,611.6z"/>
		</g>
		<g>
		</g>
	</g>
	<g id="XMLID_2_">
		<g>
			<path fill="#FFFFFF" d="M597.8,535.9c1,2.1,0.8,3.2-1.7,3.2c-15.9,0-31.9,0-48.8,0c7.9-19.6,17.2-37.9,25.7-57.8
				c3.3,7,6.1,13,8.9,19.1c2.6,5.8,5,11.6,7.6,17.3C592.2,523.9,595,529.9,597.8,535.9z"/>
		</g>
		<g>
		</g>
	</g>
</g>
</svg>
