<?xml version="1.0" encoding="utf-8"?>
<!-- Generator: Adobe Illustrator 18.0.0, SVG Export Plug-In . SVG Version: 6.00 Build 0)  -->
<!DOCTYPE svg PUBLIC "-//W3C//DTD SVG 1.1//EN" "http://www.w3.org/Graphics/SVG/1.1/DTD/svg11.dtd">
<svg version="1.1" id="Calque_1" xmlns="http://www.w3.org/2000/svg" xmlns:xlink="http://www.w3.org/1999/xlink" x="0px" y="0px"
	 viewBox="0 0 1000 1000" enable-background="new 0 0 1000 1000" xml:space="preserve">
<g>
	<g id="XMLID_1_">
		<g>
			<path fill="#FFFFFF" d="M358.9,892c7,2.5,30.4,10.2,55.6,13.7c10.8,1.5,21.6,3.1,32.4,4.2c10.1,1,20.2,1.7,30.3,2.2
				c12.3,0.5,24.7,1.1,37,0.6c13-0.5,26.1-1.7,39-3.5c15.9-2.3,31.7-5.4,47.5-8.6c6.4-1.3,12.5-3.6,19.5-5.6c1.1,2,2.4,4,3.4,6
				c5.5,10.8,10.8,21.6,16.3,32.3c1.3,2.5,0.6,3.7-1.8,5c-16.3,8.7-33.9,14-51.8,17.8c-10.3,2.2-20.7,3.5-31.1,5.1
				c-20.2,3.1-40.5,3.3-60.9,2.8c-13.3-0.4-26.6-1.7-39.8-2.8c-8.2-0.6-16.5-0.9-24.6-2.3c-13.3-2.2-26.7-4.6-39.8-7.9
				c-14.6-3.6-29-8-43.2-12.8c-18.9-6.4-39.2-13.7-64-25.5c-18.4-8.8-36.1-18.8-53-30.2c-14.4-9.7-27.4-21.2-39.2-34
				c-2.2-2.4-4.2-5.1-6.2-7.6c-3-3.8-3-4.9,0.5-8.3c5.9-5.8,12-11.5,17.9-17.3c3.5-3.4,7-6.8,10.3-10.4c2.1-2.2,3.7-2.1,5.8,0
				c6,5.9,11.7,12.2,18.3,17.4c12.5,10,25.2,20,38.5,28.8c12.4,8.2,25.5,15.7,38.9,22.3C329,880.5,343.9,886.7,358.9,892z"/>
			<path fill="#FFFFFF" d="M969.1,459.7c0.4,14.7,1,29.4,0.6,44.1c-0.3,13.6-1.4,27.3-2.8,40.9c-1.5,14.2-3.5,28.3-5.7,42.4
				c-1.5,9.7-3.8,19.2-5.8,28.8c-0.8,3.5-1.9,3.9-5.3,2.5c-17.6-7.1-35.2-14.3-52.9-21.3c-2.9-1.1-3-2.5-2.5-5.1
				c2.8-13.8,5.8-27.6,8.1-41.5c1.8-10.7,3-21.6,3.6-32.5c0.9-16.8,1.6-33.6,1.3-50.4c-0.2-11.6-2.1-23.1-3.4-34.7
				c-2.1-19.6-6.4-38.6-12.1-57.4c-5.3-17.4-11.8-34.2-20-50.4c-3.2-6.3-6.8-12.5-10.5-19.2c5.2-3.4,10.1-6.8,15.2-9.9
				c11-6.9,22.1-13.6,33-20.5c2.3-1.5,3.9-1.7,5.4,1c6.9,13.5,14.6,26.7,20.7,40.6c5.8,13.1,10.2,26.8,14.6,40.5
				c5.4,16.8,9.4,33.9,12.1,51.3c1.7,11,3.4,22,4.9,33C968.4,447.7,968.9,453.7,969.1,459.7z"/>
			<path fill="#FFFFFF" d="M500,101.1c0,3.4-2.3,3.5-4.4,3.7c-5.1,0.4-10.2,0.4-15.2,0.8c-8.3,0.8-16.5,1.7-24.8,2.8
				c-8.2,1.1-16.5,2.1-24.6,3.6c-12.9,2.5-26,4.7-38.6,8.3c-18.4,5.2-36.7,10.8-54.5,17.7c-21.1,8.1-41.4,18.3-60.3,30.8
				c-13.4,8.8-26.6,18-38.9,28.2c-12,10-23.2,21-34,32.4c-14.4,15.3-27.1,32-38.4,49.8c-12.7,19.9-24.3,40.6-32.8,62.7
				c-6,15.6-12.2,31.1-16.9,47.1c-5.1,17.3-9.1,35-12.8,52.6c-2.5,11.8-3.7,23.8-5.1,35.8c-1,8.8-1.7,17.6-2.1,26.4
				c-0.2,3.1-1.2,4.1-4.1,4.1c-11.8-0.1-23.6,0-35.3,0c-11.3,0-22.6,0-33.9,0c-4.2,0-5.6-1.7-5.1-5.9c0.3-3,0.5-6.1,0.7-9.1
				c0.7-12.8,0.9-25.8,2.3-38.5c3.3-30.6,9.4-60.6,18.8-90c6-18.7,13-37,21.1-54.9c12.8-28.4,28-55.3,45.8-80.8
				c8.3-11.8,17.1-23.2,26.2-34.3c6.5-8.1,13.8-15.6,20.9-23.1c17.2-18.4,36.7-34.4,57.2-48.9c18.2-12.9,37.2-24.3,56.9-34.6
				c27.3-14.3,55.6-26.2,85.2-34.8c21.5-6.3,43.3-11.3,65.2-16c12.1-2.6,24.5-3.7,36.8-5.2c8.8-1,17.6-1.5,26.4-2.2
				c4.8-0.4,9.6-1,14.3-1.3c2.3-0.2,4.2,0.5,4.2,3.5C499.9,54.7,499.8,77.9,500,101.1z"/>
		</g>
		<g>
		</g>
	</g>
</g>
</svg>
